/vscmnt/brussel_pixiu_data/_data_brussel/112/vsc11236/PredSimResults/SUBJ10opt3D/weighted-LRposFixed/expIG/worker_01.mot
version=1
nRows=8
nColumns=50
inDegrees=yes
endheader
                time	         pelvis_tilt	         pelvis_list	     pelvis_rotation	           pelvis_tx	           pelvis_ty	           pelvis_tz	       hip_flexion_r	     hip_adduction_r	      hip_rotation_r	        knee_angle_r	       ankle_angle_r	         mtp_angle_r	       hip_flexion_l	     hip_adduction_l	      hip_rotation_l	        knee_angle_l	       ankle_angle_l	         mtp_angle_l	    lumbar_extension	      lumbar_bending	     lumbar_rotation	 ercspn_r/activation	 intobl_r/activation	 extobl_r/activation	    abd_r/activation	    add_r/activation	hamstrings_r/activation	bifemsh_r/activation	glut_max_r/activation	iliopsoas_r/activation	rect_fem_r/activation	  vasti_r/activation	gastroc_r/activation	 soleus_r/activation	tib_ant_r/activation	 ercspn_l/activation	 intobl_l/activation	 extobl_l/activation	    abd_l/activation	    add_l/activation	hamstrings_l/activation	bifemsh_l/activation	glut_max_l/activation	iliopsoas_l/activation	rect_fem_l/activation	  vasti_l/activation	gastroc_l/activation	 soleus_l/activation	tib_ant_l/activation	
          1.13059683	         -3.99223972	         -0.87500811	          6.98269757	          1.31149233	          0.82307007	         -0.01279183	         30.54042222	         -1.60946266	         -5.82203929	         -7.75939093	          3.05372033	          0.26670282	        -16.18097245	         -0.78012293	         -0.43706670	         -6.03036347	          8.39144700	         26.47152046	         -6.47991108	         -0.53579657	         -6.64866124	          0.10802957	          0.15699582	          0.00999999	          0.00999999	          0.19084847	          0.10985422	          0.22115534	          0.05112306	          0.09554492	          0.00999999	          0.00999999	          0.01936505	          0.01390536	          0.28899642	          0.09476137	          0.00999999	          0.00999999	          0.05416352	          0.00999999	          0.01200821	          0.21167322	          0.01304860	          0.38777020	          0.00999999	          0.00999999	          0.30721718	          0.25148933	          0.02370679	
          1.14190280	         -4.02734328	         -0.85081248	          7.07895361	          1.32698295	          0.82176192	         -0.01252787	         30.38593949	         -1.48933695	         -5.45235054	         -9.32793740	          2.71074197	          0.25214033	        -16.23076056	         -0.90549798	         -0.74630454	         -7.79575496	          7.71465078	         28.13963165	         -6.26035058	         -0.07388359	         -6.95765813	          0.09090086	          0.13210324	          0.00999999	          0.01000000	          0.16058836	          0.09637301	          0.18608990	          0.09536500	          0.08039573	          0.00999999	          0.00999999	          0.01629461	          0.01170059	          0.35518752	          0.11025320	          0.00999999	          0.00999999	          0.04557559	          0.01188432	          0.01909261	          0.17811122	          0.01097967	          0.32628702	          0.00999999	          0.00999999	          0.26862617	          0.24071885	          0.01994794	
          1.15320877	         -4.05389469	         -0.84291310	          7.13349179	          1.34270341	          0.82073897	         -0.01214220	         30.08551705	         -1.36043151	         -5.14390283	        -10.64271299	          2.25232650	          0.24345170	        -16.13980997	         -1.05861529	         -1.08235428	         -9.82921070	          6.88039196	         29.75691774	         -6.02506592	          0.40405215	         -7.23684682	          0.10521302	          0.11115751	          0.00999999	          0.05844265	          0.16520814	          0.08294117	          0.15658428	          0.10976222	          0.06764853	          0.00999999	          0.00999999	          0.01371100	          0.00999999	          0.41301314	          0.12546255	          0.00999999	          0.00999999	          0.03834932	          0.00999999	          0.01606537	          0.14987067	          0.00999999	          0.27455235	          0.00999999	          0.00999999	          0.22603396	          0.22374836	          0.01678508	
          1.16451474	         -4.07220506	         -0.83017421	          7.14648871	          1.35846581	          0.82010723	         -0.01164057	         29.74062009	         -1.23340080	         -4.93764178	        -11.88846726	          1.78605770	          0.22992432	        -15.85630127	         -1.21722307	         -1.44858597	        -12.19245708	          5.87848808	         31.22878478	         -5.79575554	          0.87350588	         -7.48155163	          0.10813141	          0.09353286	          0.00999999	          0.09643258	          0.20839063	          0.07025941	          0.13175695	          0.11697932	          0.05692247	          0.00999999	          0.00999999	          0.01153705	          0.00999999	          0.44656493	          0.15260601	          0.00999999	          0.00999999	          0.03226881	          0.00999999	          0.01351821	          0.12610782	          0.00999999	          0.23102051	          0.00999999	          0.00999999	          0.19019499	          0.20576555	          0.01412371	
          1.17582071	         -4.08206101	         -0.81529505	          7.12190191	          1.37414135	          0.81993223	         -0.01103468	         29.41395593	         -1.10762622	         -4.81604344	        -13.19051796	          1.45445849	          0.21652435	        -15.34329467	         -1.38686503	         -1.84998412	        -14.92547912	          4.73011232	         32.39838138	         -5.58219051	          1.33562113	         -7.69088979	          0.10782695	          0.07870269	          0.00999999	          0.12536119	          0.23752823	          0.06597600	          0.11086613	          0.11630254	          0.04789708	          0.00999999	          0.03504090	          0.00999999	          0.00999999	          0.45851245	          0.17527869	          0.00999999	          0.00999999	          0.02715241	          0.05659649	          0.02732972	          0.10611271	          0.00999999	          0.19439089	          0.00999999	          0.00999999	          0.16003849	          0.17756002	          0.01188432	
          1.18712668	         -4.08483001	         -0.79802330	          7.06237763	          1.38963091	          0.82028785	         -0.01034758	         29.09175697	         -0.98292963	         -4.75539933	        -14.51476917	          1.31660817	          0.20174618	        -14.56720273	         -1.56944898	         -2.30602910	        -18.05961472	          3.46236060	         33.05705528	         -5.39015512	          1.78913933	         -7.86485221	          0.10277676	          0.06622393	          0.00999999	          0.14117407	          0.25774191	          0.06568841	          0.09328768	          0.10800241	          0.04030273	          0.00999999	          0.07248470	          0.00999999	          0.00999999	          0.45253095	          0.18961492	          0.00999999	          0.00999999	          0.02284724	          0.12714101	          0.03172453	          0.08928793	          0.00999999	          0.16356910	          0.00999999	          0.00999999	          0.13466347	          0.14940686	          0.00999999	
          1.19843264	         -4.08250181	         -0.77361839	          6.96835785	          1.40487070	          0.82122295	         -0.00960553	         28.71571193	         -0.85699504	         -4.72523975	        -15.75408440	          1.41650313	          0.18977633	        -13.50391229	         -1.76668143	         -2.83350122	        -21.61266872	          2.08643112	         33.01554607	         -5.22306006	          2.22901207	         -8.00223167	          0.09733803	          0.05572375	          0.00999999	          0.14798093	          0.26671157	          0.06699304	          0.07849638	          0.09852771	          0.03391250	          0.00999999	          0.09723133	          0.00999999	          0.00999999	          0.42245585	          0.19316661	          0.00999999	          0.00999999	          0.01922468	          0.18887679	          0.03502579	          0.07513082	          0.00999999	          0.13763429	          0.00999999	          0.00999999	          0.11331181	          0.12571755	          0.00999999	
          1.20973861	         -4.07687692	         -0.73637238	          6.83969314	          1.41982226	          0.82272074	         -0.00883311	         28.23616844	         -0.72878718	         -4.69256535	        -16.81483225	          1.76258991	          0.19550946	        -12.15196495	         -1.98220062	         -3.42238762	        -25.53462020	          0.48514848	         32.30277843	         -5.08352751	          2.65019212	         -8.10120183	          0.08450550	          0.04688843	          0.00999999	          0.14926262	          0.25926985	          0.06977934	          0.06605033	          0.08317477	          0.02853548	          0.00999999	          0.12721789	          0.00999999	          0.00999999	          0.37258087	          0.19219706	          0.00999999	          0.00999999	          0.01617650	          0.25281025	          0.04041745	          0.06321840	          0.00999999	          0.11581159	          0.00999999	          0.00999999	          0.09534557	          0.10578431	          0.00999999	
